<svg width="1440" height="616" viewBox="0 0 1440 616" fill="none" xmlns="http://www.w3.org/2000/svg">
<path opacity="0.4" d="M-132.333 886.836C-166.242 776.434 -199.341 657.272 -170.875 541.675C-135.855 399.349 -21.8702 322.418 122.45 328.743C335.279 338.094 505.647 502.161 705.199 560.394C1119.87 681.434 1403.46 359.024 1488.9 -16.535C1494.16 -39.6403 1458.69 -50.3107 1453.39 -27.0244C1400.34 206.22 1278.77 447.674 1036.54 527.994C780.232 612.964 563.335 450.817 341.844 350.094C205.245 287.962 25.0637 254.008 -101.772 357.208C-265.091 490.085 -221.993 721.787 -168.234 895.94C-161.207 918.651 -125.325 909.638 -132.333 886.836Z" fill="#697DDB"/>
</svg>
